<?xml version="1.0" encoding="UTF-8"?>
<svg version="1.1" xmlns="http://www.w3.org/2000/svg" width="128" height="128">
<path d="M0 0 C42.24 0 84.48 0 128 0 C128 42.24 128 84.48 128 128 C85.76 128 43.52 128 0 128 C0 85.76 0 43.52 0 0 Z " fill="#FAD7E1" transform="translate(0,0)"/>
<path d="M0 0 C6.65054386 3.99032632 11.77666645 8.24291595 14.125 15.875 C15.22833645 22.92130779 13.6781378 29.84247394 9.87109375 35.85546875 C5.59608143 41.31863164 0.96019773 44.31027818 -5.92578125 45.32421875 C-13.9642955 45.74928707 -19.78698712 44.26011381 -25.875 38.875 C-31.33382281 32.18069305 -32.36142922 25.99613426 -32.2734375 17.4609375 C-31.54912586 10.94213276 -28.5116923 7.42168474 -23.9296875 2.99609375 C-17.09987327 -2.43499469 -8.14482303 -3.02679234 0 0 Z " fill="#F2789A" transform="translate(72.875,26.125)"/>
<path d="M0 0 C1.32 0.33 2.64 0.66 4 1 C4 5 4 5 3 7 C3 8.65 3 10.3 3 12 C7.95 12.99 7.95 12.99 13 14 C13 17.63 13 21.26 13 25 C11.35 25 9.7 25 8 25 C7.67 25.66 7.34 26.32 7 27 C8.32 27.33 9.64 27.66 11 28 C10.34 29.32 9.68 30.64 9 32 C6.07120629 31.37240135 3.63904371 30.41377341 1 29 C1.680625 29.763125 2.36125 30.52625 3.0625 31.3125 C3.701875 32.199375 4.34125 33.08625 5 34 C4.67 34.99 4.34 35.98 4 37 C2.68 36.67 1.36 36.34 0 36 C-0.495 33.525 -0.495 33.525 -1 31 C-1.99 31 -2.98 31 -4 31 C-3.649375 31.556875 -3.29875 32.11375 -2.9375 32.6875 C-1.78154007 35.53886783 -2.19032562 37.08517222 -3 40 C-4.32 40 -5.64 40 -7 40 C-7 37.36 -7 34.72 -7 32 C-7.99 32 -8.98 32 -10 32 C-10 34.64 -10 37.28 -10 40 C-11.32 40 -12.64 40 -14 40 C-13.67 37.36 -13.34 34.72 -13 32 C-15.7839183 33.39195915 -15.97898997 35.15575779 -17 38 C-18.65 37.34 -20.3 36.68 -22 36 C-21.34 34.35 -20.68 32.7 -20 31 C-21.65 31.66 -23.3 32.32 -25 33 C-25.66 31.68 -26.32 30.36 -27 29 C-26.01 28.67 -25.02 28.34 -24 28 C-24.33 27.34 -24.66 26.68 -25 26 C-23.02 26 -21.04 26 -19 26 C-19.33 27.32 -19.66 28.64 -20 30 C-18.68 29.67 -17.36 29.34 -16 29 C-16 29.66 -16 30.32 -16 31 C-14.02 29.68 -12.04 28.36 -10 27 C-10 27.99 -10 28.98 -10 30 C-9.46375 29.319375 -8.9275 28.63875 -8.375 27.9375 C-6 26 -6 26 -2.75 26.25 C-1.8425 26.4975 -0.935 26.745 0 27 C0.165 26.401875 0.33 25.80375 0.5 25.1875 C2.55630761 22.18871806 4.8289425 21.75421297 8.22265625 20.7109375 C10.20334248 20.14695157 10.20334248 20.14695157 11 18 C10.46375 18.226875 9.9275 18.45375 9.375 18.6875 C5.93918099 19.13958145 3.94233306 17.67178015 1 16 C1 13.36 1 10.72 1 8 C-0.32 7.34 -1.64 6.68 -3 6 C-2.01 4.02 -1.02 2.04 0 0 Z " fill="#CC305C" transform="translate(72,29)"/>
<path d="M0 0 C0.99 0.66 1.98 1.32 3 2 C3.1875 5.625 3.1875 5.625 3 9 C7.2637281 11.35910353 7.2637281 11.35910353 12 12 C11 15 11 15 8.625 16.1875 C6 17 6 17 3 17 C2.67 18.32 2.34 19.64 2 21 C0.68 21 -0.64 21 -2 21 C-2.33 20.01 -2.66 19.02 -3 18 C-4.8253125 17.9690625 -4.8253125 17.9690625 -6.6875 17.9375 C-7.37199219 17.92589844 -8.05648437 17.91429688 -8.76171875 17.90234375 C-11.03873348 17.94070733 -11.03873348 17.94070733 -13.375 18.5 C-16.40675984 19.07747806 -19.22860536 19.09638895 -22.3125 19.0625 C-23.38113281 19.05347656 -24.44976562 19.04445313 -25.55078125 19.03515625 C-26.35902344 19.02355469 -27.16726562 19.01195313 -28 19 C-28 16.03 -28 13.06 -28 10 C-21.84765625 10.5859375 -21.84765625 10.5859375 -20 11 C-19.67 11.66 -19.34 12.32 -19 13 C-14.03839948 12.56221172 -11.72823947 10.11954731 -8 7 C-6.3603125 6.4740625 -6.3603125 6.4740625 -4.6875 5.9375 C-3.800625 5.628125 -2.91375 5.31875 -2 5 C-1.10417827 3.00339546 -1.10417827 3.00339546 -1 1 C-0.67 0.67 -0.34 0.34 0 0 Z " fill="#F4BECE" transform="translate(71,35)"/>
<path d="M0 0 C0 3.63 0 7.26 0 11 C0.99 11 1.98 11 3 11 C3 7.37 3 3.74 3 0 C5.475 0.495 5.475 0.495 8 1 C7.68872484 2.58357459 7.37592711 4.16684993 7.0625 5.75 C6.80146484 7.07257812 6.80146484 7.07257812 6.53515625 8.421875 C6.35855469 9.27265625 6.18195313 10.1234375 6 11 C5.86980469 11.72703125 5.73960938 12.4540625 5.60546875 13.203125 C4.56136466 16.30175649 1.68986754 17.3446969 -1 19 C-1.845625 19.763125 -2.69125 20.52625 -3.5625 21.3125 C-6 23 -6 23 -8.8125 22.75 C-9.534375 22.5025 -10.25625 22.255 -11 22 C-11 21.34 -11 20.68 -11 20 C-13.31 19.67 -15.62 19.34 -18 19 C-18.33 18.01 -18.66 17.02 -19 16 C-18.278125 16.144375 -17.55625 16.28875 -16.8125 16.4375 C-15.884375 16.623125 -14.95625 16.80875 -14 17 C-12.33333333 17.33333333 -10.66666667 17.66666667 -9 18 C-9 17.34 -9 16.68 -9 16 C-9.763125 15.87625 -10.52625 15.7525 -11.3125 15.625 C-14 15 -14 15 -17 13 C-16.625 11.0625 -16.625 11.0625 -16 9 C-15.34 8.67 -14.68 8.34 -14 8 C-11.69 9.65 -9.38 11.3 -7 13 C-8.65 11.02 -10.3 9.04 -12 7 C-11.34 5.68 -10.68 4.36 -10 3 C-9.34 3 -8.68 3 -8 3 C-4 9.75 -4 9.75 -4 12 C-3.34 12 -2.68 12 -2 12 C-2.2165625 11.45730469 -2.433125 10.91460937 -2.65625 10.35546875 C-2.9346875 9.64003906 -3.213125 8.92460938 -3.5 8.1875 C-3.7784375 7.47980469 -4.056875 6.77210937 -4.34375 6.04296875 C-5 4 -5 4 -5 1 C-3 0 -3 0 0 0 Z " fill="#CA6984" transform="translate(62,26)"/>
<path d="M0 0 C0.12375 0.639375 0.2475 1.27875 0.375 1.9375 C0.58125 2.618125 0.7875 3.29875 1 4 C1.66 4.33 2.32 4.66 3 5 C2.67 7.97 2.34 10.94 2 14 C4.56280208 13.85845864 7.12515485 13.71191438 9.6875 13.5625 C10.40873047 13.52318359 11.12996094 13.48386719 11.87304688 13.44335938 C15.67948038 13.2174067 19.25911604 12.77018199 23 12 C25.3125 12.4375 25.3125 12.4375 27 13 C27 13.66 27 14.32 27 15 C25.04072937 16.7143618 23.04119788 18.38405168 21 20 C20.34 19.67 19.68 19.34 19 19 C18.67 19 18.34 19 18 19 C15.66666667 19 13.33333333 19 11 19 C11 18.01 11 17.02 11 16 C10.071875 16.4640625 10.071875 16.4640625 9.125 16.9375 C7.75 17.625 6.375 18.3125 5 19 C5.66 19.66 6.32 20.32 7 21 C9.10820797 20.6814823 9.10820797 20.6814823 11 20 C10.01 22.475 10.01 22.475 9 25 C11.475 25.99 11.475 25.99 14 27 C14.66 25.02 15.32 23.04 16 21 C16.66 21 17.32 21 18 21 C17.67 23.64 17.34 26.28 17 29 C18.32 29 19.64 29 21 29 C21 26.36 21 23.72 21 21 C21.99 21.33 22.98 21.66 24 22 C23.34 22 22.68 22 22 22 C22.185625 23.299375 22.37125 24.59875 22.5625 25.9375 C22.87890625 28.15234375 22.87890625 28.15234375 23 30 C22 31 22 31 19.5625 31.4375 C13.51349864 30.69464018 8.18720532 27.63955914 4.28125 22.92578125 C0.81516542 17.4747587 -0.12216997 13.31652706 -0.0625 6.8125 C-0.05347656 5.54019531 -0.04445312 4.26789062 -0.03515625 2.95703125 C-0.02355469 1.98121094 -0.01195312 1.00539062 0 0 Z " fill="#F17C9D" transform="translate(41,40)"/>
<path d="M0 0 C1.32 0.33 2.64 0.66 4 1 C4 5 4 5 3 7 C3 8.65 3 10.3 3 12 C6.3 12.66 9.6 13.32 13 14 C13 17.63 13 21.26 13 25 C11.02 24.67 9.04 24.34 7 24 C7.66 23.67 8.32 23.34 9 23 C9.72159424 21.35636866 10.39351421 19.68949614 11 18 C10.46375 18.226875 9.9275 18.45375 9.375 18.6875 C5.93918099 19.13958145 3.94233306 17.67178015 1 16 C1 13.36 1 10.72 1 8 C-0.32 7.34 -1.64 6.68 -3 6 C-2.01 4.02 -1.02 2.04 0 0 Z " fill="#AA3656" transform="translate(72,29)"/>
<path d="M0 0 C7.13793103 5.55172414 7.13793103 5.55172414 9 10 C9.22845949 12.72120636 9.1393321 15.25980204 9 18 C8.34 17.67 7.68 17.34 7 17 C7.33 16.01 7.66 15.02 8 14 C6.72125 13.855625 5.4425 13.71125 4.125 13.5625 C1.74307106 13.29357254 0.15547309 13.07773654 -2 12 C-2.75 9.0625 -2.75 9.0625 -3 6 C-2.34 5.34 -1.68 4.68 -1 4 C-0.3574765 1.93125966 -0.3574765 1.93125966 0 0 Z " fill="#E97998" transform="translate(77,29)"/>
<path d="M0 0 C6.29 3.57 6.29 3.57 8 6 C8.1875 9.1875 8.1875 9.1875 8 12 C8.66 12 9.32 12 10 12 C10.66 10.68 11.32 9.36 12 8 C12.33 9.32 12.66 10.64 13 12 C11.3125 13.5625 11.3125 13.5625 9 15 C6.25 14.6875 6.25 14.6875 4 14 C4 13.34 4 12.68 4 12 C1.69 11.67 -0.62 11.34 -3 11 C-3.33 10.01 -3.66 9.02 -4 8 C-3.278125 8.144375 -2.55625 8.28875 -1.8125 8.4375 C-0.4203125 8.7159375 -0.4203125 8.7159375 1 9 C2.66666667 9.33333333 4.33333333 9.66666667 6 10 C6 9.34 6 8.68 6 8 C4.8553125 7.814375 4.8553125 7.814375 3.6875 7.625 C1 7 1 7 -2 5 C-1.125 1.125 -1.125 1.125 0 0 Z " fill="#BC4B6B" transform="translate(47,34)"/>
<path d="M0 0 C2.69082872 0.17635452 5.32851446 0.61835921 8 1 C8 1.66 8 2.32 8 3 C6.04072937 4.7143618 4.04119788 6.38405168 2 8 C1.34 7.67 0.68 7.34 0 7 C-0.33 7 -0.66 7 -1 7 C-3.33333333 7 -5.66666667 7 -8 7 C-8 6.01 -8 5.02 -8 4 C-8.5775 4.350625 -9.155 4.70125 -9.75 5.0625 C-12.35801776 6.14917407 -13.39417629 5.93065133 -16 5 C-16 4.01 -16 3.02 -16 2 C-14.92878906 1.93941406 -13.85757813 1.87882812 -12.75390625 1.81640625 C-11.35675609 1.73201463 -9.95962143 1.64736594 -8.5625 1.5625 C-7.50192383 1.50352539 -7.50192383 1.50352539 -6.41992188 1.44335938 C-2.91309581 1.52375562 -2.91309581 1.52375562 0 0 Z " fill="#C05B78" transform="translate(60,52)"/>
<path d="M0 0 C13.6332574 -0.55353075 13.6332574 -0.55353075 20 3 C20 3.99 20 4.98 20 6 C18.68 5.34 17.36 4.68 16 4 C15.01 7.63 14.02 11.26 13 15 C11 12 11 12 11.25 9.0625 C11.90088166 6.40473321 12.64144462 4.35482933 14 2 C12.35 1.67 10.7 1.34 9 1 C9 4.63 9 8.26 9 12 C8.01 12 7.02 12 6 12 C6 8.37 6 4.74 6 1 C4.35 1.33 2.7 1.66 1 2 C0.67 2.66 0.34 3.32 0 4 C0 2.68 0 1.36 0 0 Z " fill="#F37A9C" transform="translate(56,25)"/>
<path d="M0 0 C0 3.63 0 7.26 0 11 C0.99 11 1.98 11 3 11 C3 7.37 3 3.74 3 0 C4.65 0.33 6.3 0.66 8 1 C7.68991116 2.60463449 7.37683713 4.20869231 7.0625 5.8125 C6.88847656 6.70582031 6.71445313 7.59914063 6.53515625 8.51953125 C6 11 6 11 5 14 C5 13.34 5 12.68 5 12 C2.69 12 0.38 12 -2 12 C-2.50615298 10.73160474 -3.00469099 9.46016898 -3.5 8.1875 C-3.7784375 7.47980469 -4.056875 6.77210937 -4.34375 6.04296875 C-5 4 -5 4 -5 1 C-3 0 -3 0 0 0 Z " fill="#E32D61" transform="translate(62,26)"/>
<path d="M0 0 C0.66 0 1.32 0 2 0 C2.33 0.99 2.66 1.98 3 3 C3.33 2.01 3.66 1.02 4 0 C4.66 0 5.32 0 6 0 C6.33 0.66 6.66 1.32 7 2 C7.33 1.34 7.66 0.68 8 0 C8.99 0 9.98 0 11 0 C10 7.42857143 10 7.42857143 9 11 C8.01 11 7.02 11 6 11 C6 9.68 6 8.36 6 7 C5.34 7 4.68 7 4 7 C4 8.32 4 9.64 4 11 C3.01 11 2.02 11 1 11 C0.67 7.37 0.34 3.74 0 0 Z " fill="#912B48" transform="translate(52,79)"/>
<path d="M0 0 C2.64 0.33 5.28 0.66 8 1 C8.66 2.65 9.32 4.3 10 6 C6.48812804 8.40814077 4.27343092 9.36629408 0 9 C0 6.03 0 3.06 0 0 Z " fill="#F5C1D0" transform="translate(43,45)"/>
<path d="M0 0 C1.98 0 3.96 0 6 0 C5.67 1.32 5.34 2.64 5 4 C7.475 4.99 7.475 4.99 10 6 C9.34 7.98 8.68 9.96 8 12 C5.525 11.01 5.525 11.01 3 10 C3.66 8.35 4.32 6.7 5 5 C3.35 5.66 1.7 6.32 0 7 C-0.66 5.68 -1.32 4.36 -2 3 C-1.01 2.67 -0.02 2.34 1 2 C0.67 1.34 0.34 0.68 0 0 Z " fill="#E12C5F" transform="translate(47,55)"/>
<path d="M0 0 C1.99954746 -0.04254356 4.00041636 -0.04080783 6 0 C7 1 7 1 7.0625 3.5625 C7.041875 4.366875 7.02125 5.17125 7 6 C5.68 6.33 4.36 6.66 3 7 C3 8.32 3 9.64 3 11 C2.01 11 1.02 11 0 11 C0 7.37 0 3.74 0 0 Z " fill="#9B435D" transform="translate(41,79)"/>
<path d="M0 0 C3.53600465 1.91135386 5.78972846 3.62642766 8 7 C7.01 8.485 7.01 8.485 6 10 C6 9.34 6 8.68 6 8 C4.8553125 7.814375 4.8553125 7.814375 3.6875 7.625 C1 7 1 7 -2 5 C-1.125 1.125 -1.125 1.125 0 0 Z " fill="#E43063" transform="translate(47,34)"/>
<path d="M0 0 C-1.875 5.75 -1.875 5.75 -3 8 C-6.3 8 -9.6 8 -13 8 C-10.48959337 5.31027861 -8.34678974 3.51145343 -5 2 C-2 0 -2 0 0 0 Z " fill="#EEAFC1" transform="translate(61,46)"/>
<path d="M0 0 C0 3.3 0 6.6 0 10 C-2.97 9.505 -2.97 9.505 -6 9 C-5.34 8.67 -4.68 8.34 -4 8 C-3.27840576 6.35636866 -2.60648579 4.68949614 -2 3 C-2.598125 3.226875 -3.19625 3.45375 -3.8125 3.6875 C-4.534375 3.790625 -5.25625 3.89375 -6 4 C-7.75 2.5625 -7.75 2.5625 -9 1 C-5.94152152 0.45627049 -3.11227195 0 0 0 Z " fill="#C92D59" transform="translate(85,44)"/>
<path d="M0 0 C1.98 0 3.96 0 6 0 C5.01 2.97 4.02 5.94 3 9 C3.99 9 4.98 9 6 9 C6 9.66 6 10.32 6 11 C4.02 11 2.04 11 0 11 C0.55728913 7.65626525 1.35173889 4.96687001 3 2 C2.01 2 1.02 2 0 2 C0 1.34 0 0.68 0 0 Z " fill="#932D4A" transform="translate(74,79)"/>
<path d="M0 0 C2.02045442 0.60183749 4.02111039 1.27306096 6 2 C6.33 2.66 6.66 3.32 7 4 C6.01 5.485 6.01 5.485 5 7 C3.125 6.75 3.125 6.75 1 6 C-0.3125 4.0625 -0.3125 4.0625 -1 2 C-0.67 1.34 -0.34 0.68 0 0 Z " fill="#DE285B" transform="translate(76,54)"/>
<path d="M0 0 C2.125 0.375 2.125 0.375 4 1 C4.33 2.65 4.66 4.3 5 6 C3.02 6 1.04 6 -1 6 C-1.625 4.125 -1.625 4.125 -2 2 C-1.34 1.34 -0.68 0.68 0 0 Z " fill="#F9C8D6" transform="translate(78,35)"/>
<path d="M0 0 C0.99 0 1.98 0 3 0 C3 3.63 3 7.26 3 11 C2.01 11 1.02 11 0 11 C0 7.37 0 3.74 0 0 Z " fill="#963451" transform="translate(67,79)"/>
<path d="M0 0 C-0.9590625 0.1546875 -0.9590625 0.1546875 -1.9375 0.3125 C-2.618125 0.539375 -3.29875 0.76625 -4 1 C-4.33 1.99 -4.66 2.98 -5 4 C-5.99 4.33 -6.98 4.66 -8 5 C-8.33 5.66 -8.66 6.32 -9 7 C-9.66 7 -10.32 7 -11 7 C-11 5.35 -11 3.7 -11 2 C-7.36576791 -0.32590854 -4.22911669 -0.16265833 0 0 Z " fill="#F1B4C6" transform="translate(66,39)"/>
<path d="M0 0 C0.33 0.66 0.66 1.32 1 2 C1.99 2 2.98 2 4 2 C3.01 4.97 2.02 7.94 1 11 C-1 9 -1 9 -1.1875 5.5 C-1 2 -1 2 0 0 Z " fill="#F3D0DB" transform="translate(73,79)"/>
<path d="M0 0 C0.66 0 1.32 0 2 0 C4.1519437 3.22791555 4.20086443 4.28400809 4 8 C1.37812506 6.95125002 0.20628639 6.35068687 -1.25 3.875 C-1.4975 3.25625 -1.745 2.6375 -2 2 C-1.34 1.34 -0.68 0.68 0 0 Z " fill="#E92D62" transform="translate(52,29)"/>
<path d="M0 0 C0.99 0 1.98 0 3 0 C3 2.64 3 5.28 3 8 C1.68 8 0.36 8 -1 8 C-0.67 5.36 -0.34 2.72 0 0 Z " fill="#E7285E" transform="translate(59,61)"/>
<path d="M0 0 C0.66 0 1.32 0 2 0 C1.40075776 4.19469571 0.42500059 8.00999834 -1 12 C-3 9 -3 9 -2.75 6 C-2 3 -2 3 0 0 Z " fill="#E889A3" transform="translate(70,28)"/>
<path d="M0 0 C1.66666667 0 3.33333333 0 5 0 C5 1.98 5 3.96 5 6 C3.35 6 1.7 6 0 6 C0 4.02 0 2.04 0 0 Z " fill="#FD5E8D" transform="translate(74,94)"/>
<path d="M0 0 C-0.66 1.65 -1.32 3.3 -2 5 C-2.99 4.67 -3.98 4.34 -5 4 C-5.66 5.32 -6.32 6.64 -7 8 C-7.66 7.34 -8.32 6.68 -9 6 C-7.93344655 3.09121786 -7.32878952 2.16439476 -4.5 0.75 C-2 0 -2 0 0 0 Z " fill="#C3627D" transform="translate(81,50)"/>
<path d="M0 0 C2.31 0.33 4.62 0.66 7 1 C6.67 1.99 6.34 2.98 6 4 C2.4375 5.1875 2.4375 5.1875 -1 6 C-0.67 4.02 -0.34 2.04 0 0 Z " fill="#E79FB4" transform="translate(76,46)"/>
<path d="M0 0 C1.65 0.33 3.3 0.66 5 1 C4.67 2.32 4.34 3.64 4 5 C0.89448334 5 -0.35261084 4.4606285 -3 3 C-2.34 3 -1.68 3 -1 3 C-0.67 2.01 -0.34 1.02 0 0 Z " fill="#F2D2DC" transform="translate(100,13)"/>
<path d="M0 0 C0.66 0 1.32 0 2 0 C2.33 1.98 2.66 3.96 3 6 C3.33 6 3.66 6 4 6 C4 7.65 4 9.3 4 11 C3.01 11 2.02 11 1 11 C0.67 7.37 0.34 3.74 0 0 Z " fill="#8C213F" transform="translate(52,79)"/>
<path d="M0 0 C1.98 0 3.96 0 6 0 C4.52307692 4.67692308 4.52307692 4.67692308 1.875 6.3125 C0.946875 6.6528125 0.946875 6.6528125 0 7 C-0.66 5.68 -1.32 4.36 -2 3 C-1.01 2.67 -0.02 2.34 1 2 C0.67 1.34 0.34 0.68 0 0 Z " fill="#C42653" transform="translate(47,55)"/>
<path d="M0 0 C0.99 0.33 1.98 0.66 3 1 C5.14255793 0.61067144 5.14255793 0.61067144 7 0 C7 0.66 7 1.32 7 2 C5.04072937 3.7143618 3.04119788 5.38405168 1 7 C0.34 6.67 -0.32 6.34 -1 6 C-1 1 -1 1 0 0 Z " fill="#D8869D" transform="translate(61,53)"/>
<path d="M0 0 C1.98 0.495 1.98 0.495 4 1 C4 2.32 4 3.64 4 5 C3.01 5.33 2.02 5.66 1 6 C0.34 5.67 -0.32 5.34 -1 5 C-0.67 3.35 -0.34 1.7 0 0 Z " fill="#E8265D" transform="translate(72,29)"/>
<path d="M0 0 C1.65 1.32 3.3 2.64 5 4 C4.67 4.99 4.34 5.98 4 7 C2.68 6.67 1.36 6.34 0 6 C-0.38218767 4.34385343 -0.71395102 2.67542976 -1 1 C-0.67 0.67 -0.34 0.34 0 0 Z " fill="#E8265D" transform="translate(72,59)"/>
<path d="M0 0 C3.63 0 7.26 0 11 0 C8.08630107 2.91369893 4.93467457 3.25560211 1 4 C0.67 2.68 0.34 1.36 0 0 Z " fill="#BA4A6A" transform="translate(44,54)"/>
<path d="M0 0 C2.97 0.99 5.94 1.98 9 3 C9 3.66 9 4.32 9 5 C4.72656908 5.36629408 2.51187196 4.40814077 -1 2 C-0.67 1.34 -0.34 0.68 0 0 Z " fill="#F394AE" transform="translate(44,39)"/>
<path d="M0 0 C0.66 0 1.32 0 2 0 C2.66 2.31 3.32 4.62 4 7 C2.35 6.67 0.7 6.34 -1 6 C-0.67 4.02 -0.34 2.04 0 0 Z " fill="#983450" transform="translate(56,79)"/>
<path d="M0 0 C3.35914922 2.23943282 3.81681636 3.26842083 5 7 C5 7.99 5 8.98 5 10 C4.34 10 3.68 10 3 10 C0.96564469 6.27034861 0 4.33094958 0 0 Z " fill="#F599B3" transform="translate(55,28)"/>
<path d="M0 0 C1.32 0.33 2.64 0.66 4 1 C3.34 1 2.68 1 2 1 C2 1.66 2 2.32 2 3 C2.66 3.33 3.32 3.66 4 4 C4 4.99 4 5.98 4 7 C2.68 7 1.36 7 0 7 C0 4.69 0 2.38 0 0 Z " fill="#FD7CA2" transform="translate(84,94)"/>
<path d="M0 0 C1.32 0 2.64 0 4 0 C4 1.32 4 2.64 4 4 C3.34 4 2.68 4 2 4 C2 4.99 2 5.98 2 7 C1.34 7 0.68 7 0 7 C0 4.69 0 2.38 0 0 Z " fill="#FD85A9" transform="translate(58,94)"/>
<path d="M0 0 C2.8992226 0.46761655 3.86675182 0.86675182 6 3 C3.36 3.66 0.72 4.32 -2 5 C-1 1 -1 1 0 0 Z " fill="#C75878" transform="translate(66,55)"/>
<path d="M0 0 C0.99 0 1.98 0 3 0 C4.25664978 2.90600261 5 4.79604584 5 8 C4.34 8 3.68 8 3 8 C0 2.25 0 2.25 0 0 Z " fill="#F595B0" transform="translate(68,60)"/>
<path d="M0 0 C2.31 1.98 4.62 3.96 7 6 C6.34 6.66 5.68 7.32 5 8 C3.02 6.35 1.04 4.7 -1 3 C-0.67 2.01 -0.34 1.02 0 0 Z " fill="#F59BB4" transform="translate(49,32)"/>
<path d="M0 0 C0.66 0 1.32 0 2 0 C1.67 1.32 1.34 2.64 1 4 C-0.98 4 -2.96 4 -5 4 C-5.33 3.34 -5.66 2.68 -6 2 C-4.02 2 -2.04 2 0 2 C0 1.34 0 0.68 0 0 Z " fill="#D5C8D3" transform="translate(80,88)"/>
<path d="M0 0 C1.875 0.25 1.875 0.25 4 1 C5.25 3.0625 5.25 3.0625 6 5 C4.125 4.75 4.125 4.75 2 4 C0.75 1.9375 0.75 1.9375 0 0 Z " fill="#F392AD" transform="translate(73,58)"/>
<path d="M0 0 C0.66 0.33 1.32 0.66 2 1 C1.67 2.32 1.34 3.64 1 5 C-0.32 5.33 -1.64 5.66 -3 6 C-3 3 -3 3 -1.5 1.3125 C-0.7575 0.6628125 -0.7575 0.6628125 0 0 Z " fill="#D37993" transform="translate(55,53)"/>
<path d="M0 0 C0.99 0 1.98 0 3 0 C2.67 1.98 2.34 3.96 2 6 C1.01 6.33 0.02 6.66 -1 7 C-0.67 4.69 -0.34 2.38 0 0 Z " fill="#F5CCD8" transform="translate(73,46)"/>
<path d="M0 0 C-0.75 1.9375 -0.75 1.9375 -2 4 C-4.125 4.75 -4.125 4.75 -6 5 C-3.74193548 0 -3.74193548 0 0 0 Z " fill="#DD9BAD" transform="translate(61,46)"/>
<path d="M0 0 C0 0.66 0 1.32 0 2 C-1.98 2.66 -3.96 3.32 -6 4 C-6.99 3.01 -7.98 2.02 -9 1 C-5.94152152 0.45627049 -3.11227195 0 0 0 Z " fill="#8C1E3D" transform="translate(85,44)"/>
<path d="M0 0 C0.268125 0.639375 0.53625 1.27875 0.8125 1.9375 C1.88667752 4.33131686 1.88667752 4.33131686 5 5 C3.02 5.66 1.04 6.32 -1 7 C-0.67 4.69 -0.34 2.38 0 0 Z " fill="#D04B71" transform="translate(56,34)"/>
</svg>
